<?xml version="1.0" encoding="UTF-8" standalone="no"?>
<svg
   xmlns:osb="http://www.openswatchbook.org/uri/2009/osb"
   xmlns:dc="http://purl.org/dc/elements/1.1/"
   xmlns:cc="http://creativecommons.org/ns#"
   xmlns:rdf="http://www.w3.org/1999/02/22-rdf-syntax-ns#"
   xmlns:svg="http://www.w3.org/2000/svg"
   xmlns="http://www.w3.org/2000/svg"
   xmlns:xlink="http://www.w3.org/1999/xlink"
   xmlns:sodipodi="http://sodipodi.sourceforge.net/DTD/sodipodi-0.dtd"
   xmlns:inkscape="http://www.inkscape.org/namespaces/inkscape"
   enable-background="new 0 0 512 512"
   height="50"
   id="Spell_x5F_Scroll"
   version="1.1"
   viewBox="0 0 50 50.000001"
   width="50"
   xml:space="preserve"
   sodipodi:docname="jsgam-fav-icon.svg"
   inkscape:version="0.92.4 5da689c313, 2019-01-14"><metadata
     id="metadata61"><rdf:RDF><cc:Work
         rdf:about=""><dc:format>image/svg+xml</dc:format><dc:type
           rdf:resource="http://purl.org/dc/dcmitype/StillImage" /><dc:title></dc:title></cc:Work></rdf:RDF></metadata><defs
     id="defs59"><linearGradient
       id="linearGradient887"
       osb:paint="solid"><stop
         style="stop-color:#ffddcd;stop-opacity:1;"
         offset="0"
         id="stop885" /></linearGradient></defs><sodipodi:namedview
     pagecolor="#ffffff"
     bordercolor="#666666"
     borderopacity="1"
     objecttolerance="10"
     gridtolerance="10"
     guidetolerance="10"
     inkscape:pageopacity="0"
     inkscape:pageshadow="2"
     inkscape:window-width="1920"
     inkscape:window-height="1015"
     id="namedview57"
     showgrid="false"
     inkscape:zoom="3.6874999"
     inkscape:cx="-0.67150059"
     inkscape:cy="14.046903"
     inkscape:window-x="0"
     inkscape:window-y="0"
     inkscape:window-maximized="1"
     inkscape:current-layer="g871"
     fit-margin-top="0"
     fit-margin-left="0"
     fit-margin-right="0"
     fit-margin-bottom="0" /><linearGradient
     gradientUnits="userSpaceOnUse"
     id="SVGID_1_"
     x1="65.334503"
     x2="367.38611"
     y1="188.0972"
     y2="393.30801"><stop
       offset="0.0103"
       style="stop-color:#FFDDCD"
       id="stop2" /><stop
       offset="1"
       style="stop-color:#F79A80"
       id="stop4" /></linearGradient><linearGradient
     gradientUnits="userSpaceOnUse"
     id="SVGID_2_"
     x1="286.22461"
     x2="562.91272"
     y1="204.0674"
     y2="468.45789"
     xlink:href="#SVGID_1_"><stop
       offset="0.0103"
       style="stop-color:#FFDDCD"
       id="stop45" /><stop
       offset="1"
       style="stop-color:#F79A80"
       id="stop47" /></linearGradient><flowRoot
     xml:space="preserve"
     id="flowRoot1077"
     style="font-style:normal;font-weight:normal;font-size:40px;line-height:1.25;font-family:sans-serif;letter-spacing:0px;word-spacing:0px;fill:#000000;fill-opacity:1;stroke:none"
     transform="translate(-19.95246,-287.70404)"><flowRegion
       id="flowRegion1079"><rect
         id="rect1081"
         width="470.77966"
         height="162.71187"
         x="190.91525"
         y="193.08475" /></flowRegion><flowPara
       id="flowPara1083" /></flowRoot><g
     id="g1167"
     transform="matrix(0.5854264,0,0,0.5854264,-26.842586,-203.2681)"
     inkscape:export-filename="/home/kreezii/Downloads/g1167.png"
     inkscape:export-xdpi="45"
     inkscape:export-ydpi="45"><g
       id="g1202"
       inkscape:export-filename="/home/kreezii/g1202.png"
       inkscape:export-xdpi="45"
       inkscape:export-ydpi="45"
       transform="translate(-5.5587471,-22.234988)"><g
   id="g857"
   inkscape:export-filename="/home/kreezii/Projects/jsgam/logo/jsgamLogo.png"
   inkscape:export-xdpi="123.6983"
   inkscape:export-ydpi="123.6983"><g
     id="g871"
     inkscape:export-filename="/home/kreezii/Projects/jsgam/logo/jsgamLogo.png"
     inkscape:export-xdpi="82.398048"
     inkscape:export-ydpi="82.398048"><path
   d="m 53.21737,390.38057 c 0.570249,1.55883 1.410781,4.37707 1.40705,7.44257 -4.68e-4,0.36822 0.2008,0.70205 0.506368,0.77929 0.710909,0.17922 1.895859,0.77769 1.895859,2.77214 0,0 0,1.78753 -1.380785,2.49946 -0.261728,0.13477 -0.427416,0.4435 -0.398973,0.77823 0.280545,3.30443 1.578794,19.56617 1.120293,32.3779 0,0 1.344725,1.05619 2.638158,2.00763 0.406278,0.29885 0.942335,0.0629 1.078018,-0.47809 0.253507,-1.00987 0.631644,-2.5751 0.900371,-3.94697 0,0 0.878451,3.03124 0.951501,6.15181 0.01037,0.44331 0.312697,0.79652 0.688839,0.81759 1.838967,0.1031 6.971051,-0.0372 10.524035,-4.29286 0,0 5.325884,-0.61937 13.231863,-1.40265 0.568443,-0.0564 1.186873,-3.21387 1.322825,-2.53005 0.271186,1.364 1.580585,-3.25603 1.886768,-2.66512 0.504047,0.97286 0.272054,4.85607 0.739739,4.81156 22.289111,-10.92391 27.697671,-33.4161 -7.09251,-51.93941 -0.377367,0.10821 -0.662417,0.47059 -0.715418,0.92378 -0.143143,1.22429 -0.471859,3.71862 -0.930363,5.26208 -0.08686,0.29279 -0.443888,0.27412 -0.514452,-0.0245 -0.203607,-0.86152 -0.527195,-2.26122 -0.82421,-3.67905 -0.128213,-0.61159 -0.649825,-0.9822 -1.165675,-0.81613 -1.334932,0.42993 -4.052358,1.58079 -7.99048,4.57595 0,0 -5.639229,4.21319 -11.721104,1.33689 -0.462077,-0.21845 -0.918244,-0.44166 -1.390889,-0.62606 -0.952123,-0.37117 -2.594482,-0.96352 -4.041786,-1.24644 -0.527507,-0.10329 -0.936893,0.53194 -0.725052,1.11039 z"
   id="path7"
   style="opacity:1;fill:#ffffff;fill-opacity:1;stroke:#000000;stroke-width:1.68700278;stroke-miterlimit:4;stroke-dasharray:none;stroke-opacity:1"
   inkscape:connector-curvature="0"
   sodipodi:nodetypes="cccccccccccccsssccccccccccccc"
   inkscape:export-filename="/home/kreezii/text1087.png"
   inkscape:export-xdpi="44.320015"
   inkscape:export-ydpi="44.320015" /><g
   id="g1057"
   transform="matrix(0.31248709,0,0,0.20307193,-8.9311378,361.0286)"
   inkscape:export-filename="/home/kreezii/text1087.png"
   inkscape:export-xdpi="44.320015"
   inkscape:export-ydpi="44.320015"><path
     inkscape:connector-curvature="0"
     style="fill:#040000;fill-opacity:1;stroke:none;stroke-width:0.98321426;stroke-opacity:1"
     id="path9"
     d="m 275.369,390.11181 c 0,0 57.906,-102.49062 8.031,-267.28669 0,0 -8.926,-0.10923 -20.213,1.33986 5.65,31.03527 25.88,161.60206 -12.577,262.04423 8.101,-0.10441 16.456,1.00634 24.759,3.9026 z" /><path
     style="fill:#040000;fill-opacity:1;stroke:#000000;stroke-width:9.93059063;stroke-miterlimit:4;stroke-dasharray:none;stroke-opacity:1"
     id="path37"
     d="m 277.37394,106.938 c 0,0 13.0243,-17.457 43.09448,-31.779 22.09406,-10.522 46.7275,-14.84 71.00988,-12.31 11.63083,1.212 23.0536,3.977 28.8207,9.825 0,0 -3.93185,32.563 -17.69478,79.082 -9.9e-4,0 -95.1384,9.381 -125.23028,-44.818 z"
     inkscape:connector-curvature="0" /><path
     style="fill:#ffffff;fill-opacity:1;stroke:#000000;stroke-width:9.85652924;stroke-miterlimit:4;stroke-dasharray:none;stroke-opacity:1"
     id="path41"
     d="m 453.89048,126.531 c 0,0 -16.63228,-17.622 -51.50761,-19.271 l -8.15487,45.116 c 9.7e-4,0 47.56327,-1.071 59.66248,-25.845 z"
     inkscape:connector-curvature="0" /><path
     style="fill:#ffffff;fill-opacity:1;stroke:#000000;stroke-width:10;stroke-miterlimit:4;stroke-dasharray:none;stroke-opacity:1"
     id="path39"
     d="m 338.829,107.26 4.513,41.156 c 30.76,6.067 59.014,3.339 59.014,3.339 13.956,-46.519 17.943,-79.081 17.943,-79.081 0,0 -20.267,37.549 -81.47,34.586 z"
     inkscape:connector-curvature="0" /><path
     inkscape:connector-curvature="0"
     style="fill:#ffffff;fill-opacity:1;stroke:none;stroke-width:0.9056893;stroke-opacity:1"
     id="path43"
     d="m 390.13539,104.26873 c -2.67784,12.73026 -8.83472,31.36292 -23.75239,47.39012 19.18574,1.47056 33.67005,0.17002 33.67005,0.17002 13.06255,-40.76822 16.79431,-69.304826 16.79431,-69.304826 0,0 -7.35494,12.744284 -26.71197,21.744686 z" /><path
     sodipodi:nodetypes="ccsccccccccc"
     inkscape:connector-curvature="0"
     style="fill:#ffffff;fill-opacity:1;stroke:#000000;stroke-width:10;stroke-miterlimit:4;stroke-dasharray:none;stroke-opacity:1"
     id="path50"
     d="m 275.369,106.938 c 0,0 61.723,58.783 180.271,19.594 0,0 -0.007,0.0689 -0.0205,0.20462 -0.75331,7.47472 -22.19748,217.69583 -58.76346,293.71338 0,0 -21.566,23.226 -43.328,29.226 -3.007,0.829 -6.047,-1.267 -6.544,-4.346 l -4.013,-24.88 c 0,0 -4.845,13.729 -12.336,26.521 -1.318,2.251 -4.04,3.252 -6.483,2.337 -10.654,-3.988 -39.778,-15.392 -61.392,-28.563 -4.424,-2.695 -6.023,-8.305 -3.65,-12.908 14.403,-27.934 57.653,-131.19 16.259,-300.899 z" /><path
     inkscape:connector-curvature="0"
     style="fill:#040000;fill-opacity:1;stroke-width:0.9731133"
     id="path52"
     d="m 384.05295,143.53245 c 7.7734,7.14518 20.61881,23.07778 18.96802,49.51201 0,0 -1.57005,97.1297 -19.04195,193.09027 -2.78114,15.27745 -8.9699,29.86278 -18.90479,41.7925 -1.56518,1.87974 -3.2578,3.7517 -5.08466,5.5818 -1.54962,1.55365 -4.14399,1.23046 -5.18875,-0.69991 l -8.7627,-16.18277 3.90373,24.21867 c 0.48346,2.99728 3.44068,5.03765 6.36579,4.23162 21.1694,-5.84075 42.14813,-28.45029 42.14813,-28.45029 36.21617,-75.34273 57.18323,-286.11682 57.18323,-286.11682 -26.90581,8.90227 -50.76004,12.56734 -71.58605,13.02292 z" /></g><path
   inkscape:connector-curvature="0"
   d="m 71.697086,403.5742 c 8.82e-4,-0.007 0.0015,-0.015 0.0018,-0.0225 0,-0.003 8.82e-4,-0.006 8.82e-4,-0.009 0,-0.003 -8.82e-4,-0.006 -8.82e-4,-0.009 -2.2e-4,-0.007 -8.82e-4,-0.015 -0.0018,-0.0225 -6.62e-4,-0.008 -0.0018,-0.0163 -0.0031,-0.0243 -0.0013,-0.007 -0.0026,-0.0139 -0.0044,-0.0207 -6.62e-4,-0.003 -6.62e-4,-0.006 -0.0015,-0.009 -8.82e-4,-0.004 -0.0026,-0.006 -0.0037,-0.01 -0.0022,-0.007 -0.0046,-0.0143 -0.0073,-0.0216 -0.0031,-0.007 -0.0057,-0.0143 -0.009,-0.0216 -0.0031,-0.006 -0.0057,-0.0119 -0.0088,-0.0179 -0.0033,-0.006 -0.0068,-0.0117 -0.01059,-0.0177 -0.0042,-0.007 -0.0084,-0.0132 -0.01301,-0.0194 -0.0042,-0.006 -0.0079,-0.011 -0.01235,-0.0161 -0.0044,-0.005 -0.0088,-0.0101 -0.01367,-0.015 -0.0051,-0.006 -0.01059,-0.011 -0.01632,-0.0163 -0.0046,-0.005 -0.0097,-0.009 -0.01478,-0.0135 -0.0051,-0.004 -0.01081,-0.008 -0.0161,-0.0124 -0.0064,-0.005 -0.01279,-0.009 -0.01941,-0.013 -0.0057,-0.004 -0.01191,-0.007 -0.01787,-0.0106 -0.0057,-0.003 -0.01169,-0.006 -0.01764,-0.009 -0.0068,-0.003 -0.01389,-0.006 -0.02117,-0.009 -0.0073,-0.003 -0.01478,-0.005 -0.0225,-0.008 -0.0033,-8.8e-4 -0.006,-0.003 -0.0093,-0.004 l -1.939984,-0.52315 c -0.352885,-2.05092 -1.955864,-3.65743 -4.006346,-4.01429 l -0.520064,-1.92962 c -8.82e-4,-0.003 -0.0026,-0.006 -0.0037,-0.009 -0.0022,-0.007 -0.0046,-0.0146 -0.0073,-0.0218 -0.0031,-0.007 -0.006,-0.0148 -0.0093,-0.0218 -0.0029,-0.006 -0.0055,-0.0115 -0.0084,-0.017 -0.0035,-0.006 -0.0068,-0.0121 -0.01081,-0.0181 -0.0044,-0.007 -0.0086,-0.0137 -0.01367,-0.0201 -0.0038,-0.005 -0.0073,-0.0101 -0.01125,-0.015 -0.0046,-0.005 -0.0093,-0.0104 -0.01389,-0.0156 -0.0053,-0.006 -0.01103,-0.0115 -0.01698,-0.0168 -0.0046,-0.004 -0.009,-0.009 -0.01389,-0.0126 -0.0053,-0.004 -0.01103,-0.009 -0.01654,-0.0128 -0.0066,-0.005 -0.01345,-0.009 -0.02007,-0.0134 -0.0055,-0.004 -0.01103,-0.007 -0.01676,-0.01 -0.0057,-0.003 -0.01191,-0.006 -0.01808,-0.009 -0.0071,-0.003 -0.01412,-0.006 -0.02184,-0.009 -0.0068,-0.002 -0.01411,-0.004 -0.02117,-0.007 -0.0035,-8.8e-4 -0.0062,-0.003 -0.0097,-0.004 -0.0031,-8.8e-4 -0.0062,-6.6e-4 -0.0093,-0.002 -0.0068,-0.002 -0.01367,-0.003 -0.02051,-0.004 -0.0079,-10e-4 -0.01588,-0.002 -0.02404,-0.003 -0.0079,-6.7e-4 -0.01566,-10e-4 -0.02338,-0.002 -0.0031,0 -0.0057,-8.8e-4 -0.0086,-8.8e-4 -0.0031,0 -0.006,8.8e-4 -0.0093,8.8e-4 -0.0073,2.2e-4 -0.01456,6.6e-4 -0.02205,0.002 -0.009,6.6e-4 -0.01764,0.002 -0.02625,0.004 -0.0066,10e-4 -0.01301,0.002 -0.01941,0.004 -0.0031,6.6e-4 -0.0062,6.6e-4 -0.0093,0.002 -0.0031,8.8e-4 -0.0055,0.002 -0.0086,0.003 -0.0082,0.002 -0.0161,0.005 -0.02404,0.008 -0.0068,0.003 -0.01367,0.006 -0.02029,0.009 -0.0057,0.003 -0.01125,0.005 -0.01676,0.008 -0.0066,0.004 -0.01323,0.007 -0.01963,0.0115 -0.0064,0.004 -0.01235,0.008 -0.01853,0.0126 -0.0051,0.004 -0.01037,0.007 -0.01544,0.0117 -0.0057,0.005 -0.01103,0.009 -0.01632,0.0146 -0.0055,0.005 -0.01059,0.0104 -0.01588,0.0159 -0.0044,0.005 -0.0088,0.009 -0.01301,0.0143 -0.0046,0.006 -0.0088,0.0112 -0.01301,0.0172 -0.0046,0.006 -0.0088,0.0126 -0.01301,0.0192 -0.0035,0.006 -0.0068,0.0113 -0.01015,0.0172 -0.0033,0.006 -0.0062,0.0121 -0.009,0.0183 -0.0033,0.007 -0.0062,0.0141 -0.009,0.0214 -0.0029,0.007 -0.0051,0.0141 -0.0075,0.0216 -8.82e-4,0.003 -0.0029,0.006 -0.0037,0.01 l -0.518962,1.92455 c -2.064597,0.34715 -3.678824,1.95564 -4.033474,4.01914 l -1.940425,0.52315 c -0.0033,8.8e-4 -0.006,0.003 -0.0093,0.004 -0.0077,0.002 -0.01522,0.005 -0.02272,0.008 -0.0071,0.003 -0.01389,0.006 -0.02095,0.009 -0.0057,0.003 -0.01147,0.005 -0.0172,0.008 -0.0066,0.004 -0.01279,0.007 -0.01897,0.0113 -0.0064,0.004 -0.01279,0.008 -0.01875,0.0128 -0.0053,0.004 -0.01059,0.007 -0.01544,0.0117 -0.0055,0.005 -0.01081,0.009 -0.0161,0.0143 -0.0055,0.005 -0.01059,0.0104 -0.01588,0.0159 -0.0044,0.005 -0.0088,0.009 -0.01301,0.0143 -0.0046,0.006 -0.0088,0.0112 -0.01301,0.0172 -0.0046,0.006 -0.0088,0.0126 -0.01279,0.0192 -0.0035,0.006 -0.0068,0.0113 -0.01015,0.017 -0.0033,0.006 -0.0062,0.0121 -0.009,0.0183 -0.0033,0.007 -0.0062,0.0141 -0.009,0.0214 -0.002,0.007 -0.0044,0.0141 -0.0066,0.0214 -8.82e-4,0.003 -0.0029,0.006 -0.0037,0.01 -8.82e-4,0.003 -6.62e-4,0.006 -0.0015,0.009 -0.0015,0.007 -0.0031,0.0137 -0.0042,0.0207 -0.0013,0.008 -0.0024,0.0161 -0.0033,0.0243 -6.62e-4,0.007 -0.0013,0.015 -0.0015,0.0225 0,0.003 -8.82e-4,0.006 -8.82e-4,0.009 0,0.003 8.82e-4,0.006 8.82e-4,0.009 2.21e-4,0.007 6.62e-4,0.015 0.0015,0.0225 8.82e-4,0.008 0.0018,0.0163 0.0033,0.0243 0.0011,0.007 0.0026,0.0139 0.0042,0.0207 6.62e-4,0.003 6.62e-4,0.006 0.0015,0.009 6.61e-4,0.002 0.0022,0.004 0.0029,0.006 0.0024,0.009 0.0051,0.0168 0.0082,0.0251 0.004,0.0102 0.0086,0.0199 0.01345,0.0296 0.0046,0.009 0.0093,0.0185 0.01478,0.0274 0.0024,0.004 0.004,0.008 0.0064,0.0112 8.82e-4,10e-4 0.002,0.002 0.0029,0.004 0.0029,0.004 0.0062,0.007 0.0093,0.0112 0.0066,0.009 0.01323,0.0168 0.02051,0.0247 0.0071,0.008 0.01456,0.0143 0.0225,0.0214 0.0062,0.005 0.01169,0.0113 0.01831,0.0163 0.0015,0.001 0.0035,0.002 0.0053,0.003 4.41e-4,4.4e-4 0.0011,6.6e-4 0.0015,10e-4 0.0088,0.006 0.01808,0.0119 0.02735,0.0172 0.009,0.005 0.01787,0.0106 0.02757,0.015 0.0086,0.004 0.01742,0.007 0.02625,0.0104 0.0046,0.002 0.009,0.003 0.01367,0.005 0.0044,0.002 0.0084,0.004 0.01301,0.005 l 1.940425,0.52315 c 0.352664,2.05115 1.955865,3.65765 4.006346,4.01451 l 0.520064,1.92918 c 6.62e-4,0.002 0.0022,0.004 0.0029,0.006 0.0024,0.008 0.0051,0.0168 0.0082,0.0251 0.004,0.0102 0.0086,0.0199 0.01345,0.0296 0.0046,0.009 0.0093,0.0185 0.01478,0.0274 0.0024,0.004 0.004,0.008 0.0064,0.0113 8.82e-4,0.001 0.002,0.002 0.0029,0.004 0.0029,0.004 0.0062,0.007 0.0093,0.0113 0.0066,0.009 0.01323,0.0168 0.02051,0.0247 0.0071,0.007 0.01456,0.0143 0.0225,0.0214 0.0062,0.005 0.01169,0.0113 0.01831,0.0163 0.0015,10e-4 0.0035,0.002 0.0053,0.003 4.41e-4,4.4e-4 0.0011,6.6e-4 0.0015,10e-4 0.0088,0.006 0.01808,0.0119 0.02735,0.0172 0.009,0.005 0.01786,0.0106 0.02757,0.015 0.0086,0.004 0.01742,0.007 0.02625,0.0104 0.0046,0.002 0.009,0.003 0.01367,0.005 0.0044,0.002 0.0084,0.004 0.01301,0.005 0.0026,6.6e-4 0.0051,4.4e-4 0.0077,10e-4 0.02514,0.006 0.05095,0.0104 0.07808,0.0104 0,0 2.2e-4,0 2.2e-4,0 v 0 0 0 0 c 0,0 2.21e-4,0 2.21e-4,0 0.02713,0 0.05293,-0.004 0.07807,-0.0104 0.0026,-6.6e-4 0.0051,-4.4e-4 0.0077,-10e-4 0.0046,-0.001 0.0086,-0.004 0.01301,-0.005 0.0046,-0.002 0.009,-0.003 0.01367,-0.005 0.009,-0.003 0.01764,-0.006 0.02603,-0.0104 0.0099,-0.005 0.01875,-0.01 0.02801,-0.015 0.009,-0.005 0.01831,-0.0108 0.02691,-0.0172 6.61e-4,-4.4e-4 0.0013,-6.6e-4 0.002,-10e-4 0.0015,-0.001 0.0035,-0.002 0.0049,-0.003 0.0066,-0.005 0.01235,-0.011 0.01853,-0.0165 0.0075,-0.007 0.015,-0.0137 0.02206,-0.021 0.0075,-0.008 0.01411,-0.0165 0.02095,-0.0251 0.0029,-0.004 0.0062,-0.007 0.009,-0.011 8.82e-4,-0.001 0.002,-0.002 0.0026,-0.004 0.0026,-0.004 0.0042,-0.007 0.0064,-0.0113 0.0055,-0.009 0.01037,-0.0181 0.015,-0.0276 0.0046,-0.01 0.0093,-0.0192 0.01323,-0.0293 0.0033,-0.008 0.0057,-0.0165 0.0084,-0.0251 6.62e-4,-0.002 0.0022,-0.004 0.0029,-0.006 l 0.518962,-1.92477 c 2.064597,-0.34693 3.679045,-1.9552 4.033474,-4.01914 l 1.940425,-0.52315 c 0.0046,-10e-4 0.0084,-0.004 0.01301,-0.005 0.0046,-0.002 0.009,-0.003 0.01367,-0.005 0.0088,-0.003 0.01764,-0.006 0.02602,-0.0104 0.0099,-0.005 0.01875,-0.01 0.02801,-0.015 0.009,-0.005 0.01831,-0.0108 0.02691,-0.0172 6.62e-4,-4.4e-4 0.0013,-6.6e-4 0.002,-10e-4 0.0015,-0.001 0.0035,-0.002 0.0049,-0.003 0.0066,-0.005 0.01235,-0.011 0.01853,-0.0165 0.0075,-0.007 0.015,-0.0137 0.02206,-0.021 0.0075,-0.008 0.01412,-0.0165 0.02095,-0.0251 0.0029,-0.004 0.0062,-0.007 0.009,-0.011 8.83e-4,-0.001 0.002,-0.002 0.0026,-0.004 0.0026,-0.004 0.0042,-0.007 0.0064,-0.0112 0.0055,-0.009 0.01037,-0.0181 0.015,-0.0276 0.0046,-0.01 0.0093,-0.0192 0.01323,-0.0293 0.0033,-0.008 0.0057,-0.0168 0.0084,-0.0251 6.61e-4,-0.002 0.0022,-0.004 0.0029,-0.006 8.82e-4,-0.003 8.82e-4,-0.006 0.0015,-0.009 0.0018,-0.007 0.0031,-0.0137 0.0044,-0.0207 -2.21e-4,-0.007 8.82e-4,-0.0154 0.0015,-0.0236 z m -2.897847,-1.06726 -2.437993,-0.65724 -0.660115,-2.44836 c 1.526668,0.38266 2.719198,1.57783 3.098108,3.1056 z m -5.161382,-3.11266 -0.659894,2.4477 -2.466004,0.66496 c 0.381336,-1.53946 1.584894,-2.73794 3.125898,-3.11266 z m -3.125677,5.18322 2.437993,0.65724 0.660115,2.44836 c -1.526889,-0.38266 -2.719198,-1.57783 -3.098108,-3.1056 z m 5.161382,3.11266 0.659894,-2.4477 2.466004,-0.66496 c -0.381336,1.53946 -1.584894,2.73816 -3.125898,3.11266 z"
   id="path2"
   style="fill:#000000;fill-opacity:1;stroke-width:0.22055304"
   inkscape:export-filename="/home/kreezii/text1087.png"
   inkscape:export-xdpi="44.320015"
   inkscape:export-ydpi="44.320015" /><text
   xml:space="preserve"
   style="font-style:normal;font-variant:normal;font-weight:bold;font-stretch:normal;font-size:31.55593681px;line-height:1.25;font-family:Elley;-inkscape-font-specification:'Elley Bold';letter-spacing:0.03298638px;word-spacing:0px;fill:#000000;fill-opacity:1;stroke:none;stroke-width:0.78889847"
   x="89.354317"
   y="422.72263"
   id="text1087"
   transform="matrix(0.95845105,-0.10677545,0,1.0433501,0,0)"
   inkscape:export-filename="/home/kreezii/text1087.png"
   inkscape:export-xdpi="44.320015"
   inkscape:export-ydpi="44.320015"><tspan
     sodipodi:role="line"
     id="tspan1085"
     x="89.354317"
     y="422.72263"
     style="font-style:normal;font-variant:normal;font-weight:bold;font-stretch:normal;font-family:Elley;-inkscape-font-specification:'Elley Bold';letter-spacing:1.81488252px;word-spacing:0px;fill:#000000;fill-opacity:1;stroke:none;stroke-width:1.46166158;stroke-miterlimit:4;stroke-dasharray:none;stroke-opacity:1"
     transform="matrix(1.1588358,0.0162551,0,1,-27.369911,-2.80101)">JS</tspan></text>


</g></g>
</g></g></svg>